<svg version="1.1" id="Capa_1" xmlns="http://www.w3.org/2000/svg" xmlns:xlink="http://www.w3.org/1999/xlink" x="0px" y="0px"
	 viewBox="0 0 553 495" style="enable-background:new 0 0 553 495;" xml:space="preserve">
<style type="text/css">
	.st0{
		fill: none;
		stroke: #ffffff;
		stroke-width: 6;
		stroke-miterlimit: 10;
	}

	.st0 {
			stroke-dasharray: 1700;
  			stroke-dashoffset: 0;
  			-webkit-animation: dash 6s linear forwards;
  			-moz-animation: dash 6s linear forwards;
  			animation: dash 6s linear forwards;
		}

		@keyframes dash {
  			from {
    			stroke-dashoffset: 1700;
  			}
  			to {
    			stroke-dashoffset: 0;
  			}
		}
</style>
<path class="st0" d="M297.488,92.065l-86.357,9.477c0.566-2.726,0.961-5.502,1.161-8.317c0.561-7.909-0.377-15.692-2.676-23.037
	l90.768-17.154c-0.452-3.03,1.638-5.852,4.667-6.304l94.676-14.12c-0.519-3.479,1.88-6.719,5.36-7.238l109.289-16.3
	c3.479-0.519,6.719,1.88,7.238,5.36l7.318,49.063c0.519,3.479-1.88,6.719-5.36,7.238l-109.29,16.3
	c-3.479,0.519-6.719-1.88-7.238-5.36l-54.289,8.097c24.5,120.192,50.607,259.916,74.672,378.161
	c1.659,8.15-3.603,16.101-11.753,17.76c-8.155,1.659-16.102-3.608-17.759-11.753c-23.405-114.993-48.689-250.029-72.559-367.761
	c-3.722,18.381-7.47,37.24-11.222,56.337c-7.077-7.871-17.311-12.586-28.234-12.512C289.774,130.323,293.647,110.926,297.488,92.065
	z"/>
<path class="st0" d="M270.445,229.413l23.408-4.916c3.118-0.655,6.062-1.682,8.801-3.018
	c-16.067,83.117-33.169,173.335-49.875,252.56c-1.715,8.139-9.705,13.344-17.841,11.629c-8.138-1.716-13.344-9.704-11.629-17.842
	C239.102,392.922,255.279,308.014,270.445,229.413z"/>
<path class="st0" d="M26.017,460.286c-5.881,5.881-5.881,15.416,0,21.297s15.417,5.881,21.297,0l17.043-17.042h45.655l17.043,17.042
	c5.882,5.881,15.418,5.881,21.297,0c2.751-2.752,4.197-6.303,4.375-9.905c3.174,6.417,8.992,11.483,16.457,13.457
	c13.716,3.626,27.771-4.553,31.396-18.268l35.037-132.536c1.748-6.611,0.787-13.646-2.668-19.546
	c-3.457-5.9-9.122-10.179-15.743-11.889l-85.794-22.149l10.077-58.959l-39.007-24.151l79.377,30.304
	c3.836,1.465,8.016,1.795,12.033,0.951l96.622-20.293c11.568-2.43,18.978-13.778,16.548-25.347
	c-2.431-11.569-13.78-18.98-25.347-16.548l-90.465,19l-81.991-31.302l38.036,7.486c-3.961-10.493-13.167-18.283-24.489-20.217
	c-9.489-1.622-7.226-1.235-18.498-3.161c-17.802-3.042-36.066,1.486-50.384,12.492c-14.319,11.006-23.392,27.491-25.029,45.477
	l-8.781,95.104c-1.688,18.279,10.795,34.347,28.047,37.901h-13.59c-9.703,0-17.569,7.866-17.569,17.569s7.866,17.569,17.569,17.569
	h37.555v69.801H58.119c-3.994,0-7.824,1.586-10.648,4.41L26.017,460.286z M116.25,434.423h-14.006v-69.801h37.555
	c9.703,0,17.569-7.866,17.569-17.569c0-2.456-0.508-4.792-1.418-6.915l23.399,6.041l-28.434,107.559
	c-0.775,2.931-1.006,5.878-0.764,8.735c-0.524-0.769-1.119-1.505-1.801-2.187l-21.453-21.453
	C124.074,436.009,120.245,434.423,116.25,434.423L116.25,434.423z"/>
<path class="st0" d="M150.193,136.058c-27.559,0-49.107-23.34-47.173-50.59c1.767-24.888,22.506-43.9,47.075-43.9
	c27.559,0,49.108,23.34,47.173,50.59C195.503,117.046,174.762,136.058,150.193,136.058z"/>
</svg>
