<?xml version="1.0" encoding="iso-8859-1"?>
<!-- Generator: Adobe Illustrator 19.0.0, SVG Export Plug-In . SVG Version: 6.00 Build 0)  -->
<svg version="1.1" id="Layer_1" xmlns="http://www.w3.org/2000/svg" xmlns:xlink="http://www.w3.org/1999/xlink" x="0px" y="0px"
	 viewBox="0 0 185 24" style="enable-background:new 0 0 185 24;" xml:space="preserve">
<g id="XMLID_1_">
	<path id="XMLID_5_" style="fill:#FFFFFF;" d="M1.7050781,17.0839844V4.2866211h3.3046875
		c2.5371094,0,4.4589844,0.5288086,5.765625,1.5864258s1.9599609,2.6469727,1.9599609,4.7680664
		c0,2.0742188-0.6166992,3.6665039-1.8500977,4.7768555s-3.0131836,1.6660156-5.3393555,1.6660156H1.7050781z M3.7265625,15.3613281
		h1.9335938c1.6171875,0,2.8447266-0.4091797,3.6826172-1.2265625s1.2568359-1.9848633,1.2568359-3.5024414
		c0-1.5527344-0.4394531-2.7114258-1.3183594-3.4760742S7.0458984,6.0092773,5.2119141,6.0092773H3.7265625V15.3613281z"/>
	<path id="XMLID_8_" style="fill:#FFFFFF;" d="M15.046875,17.0839844V8.065918h1.9248047v9.0180664H15.046875z
		 M15.0556641,6.0444336V4.2866211h1.9160156v1.7578125H15.0556641z"/>
	<path id="XMLID_11_" style="fill:#FFFFFF;" d="M19.7490234,17.0839844v-6.2758789
		c0-0.3867188-0.0087891-0.7558594-0.0263672-1.1074219s-0.0380859-0.6782227-0.0615234-0.9799805
		s-0.0380859-0.5200195-0.0439453-0.6547852h2.0654297v1.2832031c0.2226563-0.4511719,0.581543-0.815918,1.0766602-1.0942383
		s1.0239258-0.4174805,1.5864258-0.4174805c0.5917969,0,1.1279297,0.1523438,1.6083984,0.4570313
		s0.84375,0.7441406,1.0898438,1.3183594c0.3515625-0.5507813,0.7851563-0.984375,1.3007813-1.3007813
		s1.1044922-0.4746094,1.7666016-0.4746094c1.0546875,0,1.8530273,0.328125,2.3950195,0.984375
		s0.8129883,1.5673828,0.8129883,2.7333984v5.5288086h-1.96875v-5.3793945c0-0.421875-0.0410156-0.7954102-0.1230469-1.1206055
		s-0.234375-0.5991211-0.4570313-0.8217773s-0.5039063-0.3339844-0.84375-0.3339844c-0.65625,0-1.21875,0.2563477-1.6875,0.769043
		s-0.703125,1.1000977-0.703125,1.762207v5.1245117h-1.96875v-5.5288086c0-0.2753906-0.0234375-0.5288086-0.0703125-0.7602539
		s-0.1245117-0.4555664-0.2329102-0.6723633s-0.2680664-0.3867188-0.4790039-0.5097656s-0.4628906-0.1845703-0.7558594-0.1845703
		c-0.6445313,0-1.190918,0.2255859-1.6391602,0.6767578s-0.6723633,0.9697266-0.6723633,1.5556641v5.4233398H19.7490234z"/>
	<path id="XMLID_13_" style="fill:#FFFFFF;" d="M35.9560547,17.0839844V8.065918h1.9248047v9.0180664H35.9560547z
		 M35.9648438,6.0444336V4.2866211h1.9160156v1.7578125H35.9648438z"/>
	<path id="XMLID_16_" style="fill:#FFFFFF;" d="M45.6503906,17.0751953h-0.84375
		c-0.6445313,0-1.1748047-0.0410156-1.5908203-0.1230469s-0.7851563-0.2373047-1.1074219-0.4658203
		s-0.5551758-0.5566406-0.6987305-0.984375s-0.215332-0.9785156-0.215332-1.6523438v-4.465332h-1.7929688V8.065918h1.8457031
		V5.8686523l1.9072266-0.5712891V8.065918h2.4609375v1.3183594h-2.4609375v4.5795898
		c0,0.3691406,0.0322266,0.6542969,0.0966797,0.8564453s0.1992188,0.3623047,0.4042969,0.4794922
		s0.4511719,0.1904297,0.7382813,0.2197266s0.7060547,0.0439453,1.2568359,0.0439453V17.0751953z"/>
	<path id="XMLID_18_" style="fill:#FFFFFF;" d="M47.8828125,17.0839844V10.315918
		c0-0.2460938-0.0117188-0.5566406-0.0351563-0.9316406s-0.046875-0.6884766-0.0703125-0.9404297L47.7421875,8.065918h2.0917969
		V9.340332c0.6503906-1.0019531,1.4179688-1.5029297,2.3027344-1.5029297c0.2929688,0,0.5976563,0.0439453,0.9140625,0.1318359
		v1.7314453c-0.3398438-0.1171875-0.6914063-0.1757813-1.0546875-0.1757813c-0.6386719,0-1.1542969,0.215332-1.546875,0.6459961
		s-0.5888672,1.0444336-0.5888672,1.8413086v5.0717773H47.8828125z"/>
	<path id="XMLID_20_" style="fill:#FFFFFF;" d="M54.7998047,17.0839844V8.065918h1.9248047v9.0180664H54.7998047z
		 M54.8085938,6.0444336V4.2866211h1.9160156v1.7578125H54.8085938z"/>
	<path id="XMLID_23_" style="fill:#FFFFFF;" d="M62.7011719,17.2861328c-0.7851563,0-1.4941406-0.1142578-2.1269531-0.3427734
		s-1.1308594-0.4863281-1.4941406-0.7734375l0.5097656-1.4414063c0.3574219,0.2695313,0.8085938,0.5009766,1.3535156,0.6943359
		s1.078125,0.2900391,1.5996094,0.2900391c1.0429688,0,1.5644531-0.3837891,1.5644531-1.1513672
		c0-0.2929688-0.1083984-0.5205078-0.3251953-0.6816406s-0.6767578-0.3613281-1.3798828-0.6015625l-0.84375-0.2905273
		c-0.3984375-0.1347656-0.7236328-0.2636719-0.9755859-0.3867188s-0.4980469-0.28125-0.7382813-0.4746094
		s-0.4174805-0.4306641-0.5317383-0.7119141s-0.1713867-0.6152344-0.1713867-1.0019531
		c0-0.4453125,0.0908203-0.8364258,0.2724609-1.1733398s0.4306641-0.6035156,0.7470703-0.7998047S60.8261719,8.0966797,61.2070313,8
		s0.7880859-0.1450195,1.2216797-0.1450195c0.609375,0,1.1894531,0.0761719,1.7402344,0.2285156
		s1.0195313,0.3544922,1.40625,0.6064453l-0.5273438,1.3710938c-0.3105469-0.1640625-0.6928711-0.3134766-1.1469727-0.4482422
		s-0.8803711-0.2021484-1.2788086-0.2021484c-1.0371094,0-1.5556641,0.3105469-1.5556641,0.9316406
		c0,0.28125,0.0922852,0.4921875,0.2768555,0.6328125s0.590332,0.3222656,1.2172852,0.5449219
		c0.0234375,0.0058594,0.168457,0.0556641,0.4350586,0.1494141s0.4174805,0.1464844,0.4526367,0.1582031
		c0.3398438,0.1171875,0.6181641,0.2241211,0.8349609,0.3208008s0.440918,0.2211914,0.6723633,0.3735352
		s0.4116211,0.3164063,0.5405273,0.4926758c0.1289063,0.1757813,0.2358398,0.3925781,0.3208008,0.6503906
		s0.1274414,0.5537109,0.1274414,0.8876953c0,0.4921875-0.0952148,0.9208984-0.2856445,1.2871094
		s-0.4467773,0.6503906-0.769043,0.8525391s-0.6665039,0.3515625-1.0327148,0.4482422S63.1054688,17.2861328,62.7011719,17.2861328z
		"/>
	<path id="XMLID_25_" style="fill:#FFFFFF;" d="M73.6787109,17.0839844V4.2866211h3.3046875
		c2.5371094,0,4.4589844,0.5288086,5.765625,1.5864258s1.9599609,2.6469727,1.9599609,4.7680664
		c0,2.0742188-0.6171875,3.6665039-1.8505859,4.7768555s-3.0126953,1.6660156-5.3388672,1.6660156H73.6787109z
		 M75.7001953,15.3613281h1.9335938c1.6171875,0,2.8447266-0.4091797,3.6826172-1.2265625s1.2568359-1.9848633,1.2568359-3.5024414
		c0-1.5527344-0.4394531-2.7114258-1.3183594-3.4760742s-2.2353516-1.1469727-4.0693359-1.1469727h-1.4853516V15.3613281z"/>
	<path id="XMLID_28_" style="fill:#FFFFFF;" d="M87.0205078,17.0839844V8.065918h1.9248047v9.0180664H87.0205078z
		 M87.0292969,6.0444336V4.2866211h1.9160156v1.7578125H87.0292969z"/>
	<path id="XMLID_31_" style="fill:#FFFFFF;" d="M91.7226563,17.0839844v-6.2758789
		c0-0.3867188-0.0087891-0.7558594-0.0263672-1.1074219s-0.0380859-0.6782227-0.0615234-0.9799805
		s-0.0380859-0.5200195-0.0439453-0.6547852H93.65625v1.2832031c0.2226563-0.4511719,0.5810547-0.815918,1.0761719-1.0942383
		s1.0244141-0.4174805,1.5869141-0.4174805c0.5917969,0,1.1279297,0.1523438,1.6083984,0.4570313
		s0.84375,0.7441406,1.0898438,1.3183594c0.3515625-0.5507813,0.7851563-0.984375,1.3007813-1.3007813
		s1.1044922-0.4746094,1.7666016-0.4746094c1.0546875,0,1.8525391,0.328125,2.3955078,0.984375
		c0.5410156,0.65625,0.8125,1.5673828,0.8125,2.7333984v5.5288086h-1.96875v-5.3793945
		c0-0.421875-0.0410156-0.7954102-0.1230469-1.1206055s-0.234375-0.5991211-0.4570313-0.8217773
		s-0.5039063-0.3339844-0.84375-0.3339844c-0.65625,0-1.21875,0.2563477-1.6875,0.769043s-0.703125,1.1000977-0.703125,1.762207
		v5.1245117h-1.96875v-5.5288086c0-0.2753906-0.0234375-0.5288086-0.0703125-0.7602539s-0.125-0.4555664-0.2324219-0.6723633
		c-0.109375-0.2167969-0.2685547-0.3867188-0.4794922-0.5097656s-0.4628906-0.1845703-0.7558594-0.1845703
		c-0.6445313,0-1.1904297,0.2255859-1.6396484,0.6767578c-0.4472656,0.4511719-0.671875,0.9697266-0.671875,1.5556641v5.4233398
		H91.7226563z"/>
	<path id="XMLID_33_" style="fill:#FFFFFF;" d="M112.1748047,17.2861328c-0.7558594,0-1.4375-0.1230469-2.0429688-0.3691406
		c-0.6074219-0.2460938-1.1025391-0.5830078-1.4863281-1.0107422s-0.6757813-0.9248047-0.8789063-1.4902344
		c-0.2011719-0.5654297-0.3027344-1.1787109-0.3027344-1.8413086c0-0.9023438,0.1757813-1.706543,0.5273438-2.4125977
		s0.8886719-1.2700195,1.6132813-1.6918945c0.7226563-0.421875,1.5830078-0.6328125,2.5791016-0.6328125
		c0.7617188,0,1.4414063,0.1201172,2.0390625,0.3603516s1.0839844,0.5756836,1.4589844,1.0063477
		s0.6601563,0.9316406,0.8564453,1.5029297s0.2949219,1.199707,0.2949219,1.8852539
		c0,0.6508789-0.1015625,1.2573242-0.3027344,1.8198242c-0.203125,0.5625-0.4921875,1.0585938-0.8710938,1.4892578
		c-0.3769531,0.4306641-0.8671875,0.7695313-1.4667969,1.015625
		C113.5908203,17.1630859,112.9189453,17.2861328,112.1748047,17.2861328z M112.1660156,15.6865234
		c0.8671875,0,1.5185547-0.2900391,1.9560547-0.8701172c0.4355469-0.5800781,0.6542969-1.3300781,0.6542969-2.2504883
		c0-0.9316406-0.2226563-1.6875-0.6679688-2.2675781s-1.0957031-0.8701172-1.9511719-0.8701172
		s-1.5087891,0.2900391-1.9599609,0.8701172s-0.6767578,1.3359375-0.6767578,2.2675781
		c0,0.9204102,0.2226563,1.6704102,0.6679688,2.2504883S111.2929688,15.6865234,112.1660156,15.6865234z"/>
	<path id="XMLID_36_" style="fill:#FFFFFF;" d="M122.4052734,17.2861328c-0.7851563,0-1.4941406-0.1142578-2.1269531-0.3427734
		s-1.1308594-0.4863281-1.4941406-0.7734375l0.5097656-1.4414063c0.3574219,0.2695313,0.8085938,0.5009766,1.3535156,0.6943359
		s1.078125,0.2900391,1.5996094,0.2900391c1.0429688,0,1.5644531-0.3837891,1.5644531-1.1513672
		c0-0.2929688-0.1083984-0.5205078-0.3251953-0.6816406s-0.6767578-0.3613281-1.3798828-0.6015625l-0.84375-0.2905273
		c-0.3984375-0.1347656-0.7236328-0.2636719-0.9755859-0.3867188s-0.4980469-0.28125-0.7382813-0.4746094
		s-0.4169922-0.4306641-0.5322266-0.7119141c-0.1132813-0.28125-0.1708984-0.6152344-0.1708984-1.0019531
		c0-0.4453125,0.0908203-0.8364258,0.2724609-1.1733398s0.4306641-0.6035156,0.7470703-0.7998047
		S120.5302734,8.0966797,120.9111328,8s0.7880859-0.1450195,1.2216797-0.1450195
		c0.609375,0,1.1894531,0.0761719,1.7402344,0.2285156s1.0195313,0.3544922,1.40625,0.6064453l-0.5273438,1.3710938
		c-0.3105469-0.1640625-0.6933594-0.3134766-1.1474609-0.4482422s-0.8798828-0.2021484-1.2783203-0.2021484
		c-1.0371094,0-1.5556641,0.3105469-1.5556641,0.9316406c0,0.28125,0.0917969,0.4921875,0.2773438,0.6328125
		c0.1835938,0.140625,0.5898438,0.3222656,1.2167969,0.5449219c0.0234375,0.0058594,0.1679688,0.0556641,0.4355469,0.1494141
		c0.265625,0.09375,0.4169922,0.1464844,0.4521484,0.1582031c0.3398438,0.1171875,0.6181641,0.2241211,0.8349609,0.3208008
		s0.4404297,0.2211914,0.671875,0.3735352s0.4121094,0.3164063,0.5410156,0.4926758
		c0.1289063,0.1757813,0.2353516,0.3925781,0.3203125,0.6503906s0.1279297,0.5537109,0.1279297,0.8876953
		c0,0.4921875-0.0957031,0.9208984-0.2861328,1.2871094s-0.4462891,0.6503906-0.7685547,0.8525391
		s-0.6669922,0.3515625-1.0322266,0.4482422C123.1943359,17.2373047,122.8095703,17.2861328,122.4052734,17.2861328z"/>
	<path id="XMLID_38_" style="fill:#FFFFFF;" d="M127.8105469,17.0839844V8.065918h1.9248047v9.0180664H127.8105469z
		 M127.8193359,6.0444336V4.2866211h1.9160156v1.7578125H127.8193359z"/>
	<path id="XMLID_41_" style="fill:#FFFFFF;" d="M136.3359375,17.2861328c-0.703125,0-1.3388672-0.1308594-1.9072266-0.3916016
		s-1.0283203-0.6103516-1.3798828-1.0498047s-0.6201172-0.9335938-0.8037109-1.4814453
		c-0.1855469-0.5478516-0.2773438-1.1230469-0.2773438-1.7270508c0-0.6328125,0.0976563-1.2363281,0.2949219-1.8105469
		c0.1953125-0.5742188,0.4755859-1.0839844,0.8388672-1.5292969s0.8271484-0.7998047,1.3935547-1.0634766
		c0.5644531-0.2636719,1.1904297-0.3955078,1.8759766-0.3955078c0.5976563,0,1.1308594,0.1274414,1.5996094,0.3823242
		s0.84375,0.5961914,1.125,1.0239258V8.065918h1.9248047v9.0180664h-1.9599609v-1.3535156
		c-0.2695313,0.46875-0.640625,0.8447266-1.1123047,1.1289063S136.9394531,17.2861328,136.3359375,17.2861328z
		 M136.6083984,15.6865234c0.8613281,0,1.5029297-0.2861328,1.9248047-0.8574219s0.6328125-1.3339844,0.6328125-2.2895508
		c0-0.9375-0.21875-1.6904297-0.6552734-2.2587891s-1.0791016-0.8525391-1.9287109-0.8525391
		c-0.8730469,0-1.5322266,0.2856445-1.9775391,0.8569336s-0.6679688,1.3286133-0.6679688,2.2719727
		c0,0.9262695,0.2246094,1.6791992,0.671875,2.2592773C135.0576172,15.3964844,135.7236328,15.6865234,136.6083984,15.6865234z"/>
	<path id="XMLID_44_" style="fill:#FFFFFF;" d="M143.8154297,17.0839844V10.315918
		c0-0.2460938-0.0117188-0.5566406-0.0351563-0.9316406s-0.046875-0.6884766-0.0703125-0.9404297l-0.0351563-0.3779297h2.0917969
		V9.340332c0.6503906-1.0019531,1.4179688-1.5029297,2.3027344-1.5029297c0.2929688,0,0.5976563,0.0439453,0.9140625,0.1318359
		v1.7314453c-0.3398438-0.1171875-0.6914063-0.1757813-1.0546875-0.1757813c-0.6386719,0-1.1542969,0.215332-1.546875,0.6459961
		s-0.5888672,1.0444336-0.5888672,1.8413086v5.0717773H143.8154297z"/>
	<path id="XMLID_46_" style="fill:#FFFFFF;" d="M150.7324219,17.0839844V8.065918h1.9248047v9.0180664H150.7324219z
		 M150.7412109,6.0444336V4.2866211h1.9160156v1.7578125H150.7412109z"/>
	<path id="XMLID_49_" style="fill:#FFFFFF;" d="M158.6337891,17.2861328c-0.7851563,0-1.4941406-0.1142578-2.1269531-0.3427734
		s-1.1308594-0.4863281-1.4941406-0.7734375l0.5097656-1.4414063c0.3574219,0.2695313,0.8085938,0.5009766,1.3535156,0.6943359
		s1.078125,0.2900391,1.5996094,0.2900391c1.0429688,0,1.5644531-0.3837891,1.5644531-1.1513672
		c0-0.2929688-0.1083984-0.5205078-0.3251953-0.6816406s-0.6767578-0.3613281-1.3798828-0.6015625l-0.84375-0.2905273
		c-0.3984375-0.1347656-0.7236328-0.2636719-0.9755859-0.3867188s-0.4980469-0.28125-0.7382813-0.4746094
		s-0.4169922-0.4306641-0.5322266-0.7119141c-0.1132813-0.28125-0.1708984-0.6152344-0.1708984-1.0019531
		c0-0.4453125,0.0908203-0.8364258,0.2724609-1.1733398s0.4306641-0.6035156,0.7470703-0.7998047
		S156.7587891,8.0966797,157.1396484,8s0.7880859-0.1450195,1.2216797-0.1450195
		c0.609375,0,1.1894531,0.0761719,1.7402344,0.2285156s1.0195313,0.3544922,1.40625,0.6064453l-0.5273438,1.3710938
		c-0.3105469-0.1640625-0.6933594-0.3134766-1.1474609-0.4482422s-0.8798828-0.2021484-1.2783203-0.2021484
		c-1.0371094,0-1.5556641,0.3105469-1.5556641,0.9316406c0,0.28125,0.0917969,0.4921875,0.2773438,0.6328125
		c0.1835938,0.140625,0.5898438,0.3222656,1.2167969,0.5449219c0.0234375,0.0058594,0.1679688,0.0556641,0.4355469,0.1494141
		c0.265625,0.09375,0.4169922,0.1464844,0.4521484,0.1582031c0.3398438,0.1171875,0.6181641,0.2241211,0.8349609,0.3208008
		s0.4404297,0.2211914,0.671875,0.3735352s0.4121094,0.3164063,0.5410156,0.4926758
		c0.1289063,0.1757813,0.2353516,0.3925781,0.3203125,0.6503906s0.1279297,0.5537109,0.1279297,0.8876953
		c0,0.4921875-0.0957031,0.9208984-0.2861328,1.2871094s-0.4462891,0.6503906-0.7685547,0.8525391
		s-0.6669922,0.3515625-1.0322266,0.4482422C159.4228516,17.2373047,159.0380859,17.2861328,158.6337891,17.2861328z"/>
</g>
<line id="XMLID_2_" style="fill:none;stroke:#FFFFFF;stroke-width:2;stroke-miterlimit:10;" x1="164.625" y1="12" x2="182.875" y2="12"/>
<line id="XMLID_3_" style="fill:none;stroke:#FFFFFF;stroke-miterlimit:10;" x1="182.875" y1="12" x2="183.875" y2="12"/>
<g id="XMLID_4_">
</g>
<g id="XMLID_51_">
</g>
<g id="XMLID_52_">
</g>
<g id="XMLID_53_">
</g>
<g id="XMLID_54_">
</g>
<g id="XMLID_55_">
</g>
</svg>
