<?xml version="1.0" encoding="iso-8859-1"?>
<!-- Generator: Adobe Illustrator 19.0.0, SVG Export Plug-In . SVG Version: 6.00 Build 0)  -->
<svg version="1.1" id="Capa_1" xmlns="http://www.w3.org/2000/svg" xmlns:xlink="http://www.w3.org/1999/xlink" x="0px" y="0px"
	 viewBox="0 0 424 460" style="enable-background:new 0 0 424 460;" xml:space="preserve">
<style type="text/css">
	.st0{
		fill: none;
		stroke: #ffffff;
		stroke-width: 1.5;
		stroke-miterlimit: 10;
	}

	.st0 {
			stroke-dasharray: 600;
  			stroke-dashoffset: 0;
  			-webkit-animation: dash 8s linear forwards;
  			-moz-animation: dash 8s linear forwards;
  			animation: dash 8s linear forwards;
		}

		@keyframes dash {
  			from {
    			stroke-dashoffset: 600;
  			}
  			to {
    			stroke-dashoffset: 0;
  			}
		}
</style>
<path class="st0" d="M402.32,368.192l-15.36-11.264l0.512-19.456c0-2.048-1.024-3.584-2.56-4.608
	c-1.536-1.024-3.584-0.512-5.632,0.512l-15.872,11.264l-17.92-6.144c-2.048-0.512-4.096,0-5.12,1.024
	c-1.536,1.536-2.048,3.584-1.536,5.12l6.144,18.432l-11.776,15.36c-1.024,1.536-1.536,3.516-0.512,5.564
	c1.024,1.536,2.56,3.004,4.608,3.004h19.456l10.752,15.912c1.024,1.536,2.56,2.088,4.096,2.088h0.512
	c2.048,0,3.584-1.508,4.096-3.556l6.144-18.418l18.432-5.625c2.048-0.512,3.072-2.045,3.584-4.093
	C404.88,371.26,403.856,369.728,402.32,368.192z M376.72,373.824c-1.536,0.512-3.072,1.536-3.584,3.072l-3.072,11.264l-6.656-9.92
	c-1.024-1.536-2.56-2.24-4.096-2.24h-11.776l7.168-9.024c1.024-1.536,1.536-2.976,1.024-4.512l-3.584-11.216l10.752,4.12
	c1.536,0.512,3.584,0.524,4.608-0.5l9.216-6.65l-0.512,11.779c0,1.536,0.512,3.073,2.048,4.098l9.216,6.657L376.72,373.824z"/>
<path class="st0" d="M75.152,100.172c1.024,1.536,2.56,2.828,4.608,2.828h19.456l10.752,15.912c1.024,1.536,2.56,2.088,4.096,2.088
	h0.512c2.048,0,3.584-1.332,4.096-3.38l6.144-18.33l18.432-5.581c2.048-0.512,3.072-2.022,3.584-4.07
	c0.512-2.048-0.512-4.083-2.048-5.107l-15.36-11.258l0.512-19.453c0-2.048-1.024-3.582-2.56-4.606
	c-1.536-1.024-3.584-0.511-5.632,0.513l-15.872,11.264l-17.408-6.144c-2.048-0.512-4.096,0-5.12,1.024
	c-1.536,1.536-2.048,3.584-1.536,5.12l6.144,18.432L76.176,94.662C74.64,96.198,74.64,98.636,75.152,100.172z M98.192,78.912
	l-3.584-11.264l10.752,4.096c1.536,0.512,3.492,0.512,4.516-0.512L119,64.576v11.776c0,1.536,0.604,3.072,2.14,4.096l9.262,6.656
	l-11.241,3.072c-1.536,0.512-3.061,1.536-3.573,3.072l-3.578,11.264l-6.653-9.596C104.333,93.38,102.8,93,101.264,93H89.488
	l7.168-9.348C98.192,82.628,98.704,80.96,98.192,78.912z"/>
<path class="st0" d="M103.312,239.68c2.048,0.512,4.096,0,5.12-1.536c1.536-1.536,1.536-3.584,1.024-5.12l-5.12-12.288l7.168-11.264
	c1.024-1.536,1.024-3.584,0-5.632c-1.024-1.536-3.072-2.56-4.608-2.56l-13.312,1.024l-8.192-10.24
	c-1.024-1.536-3.072-2.048-5.12-2.048c-2.048,0.512-3.584,2.048-4.096,3.584l-3.072,12.8l-12.288,4.608
	c-2.048,0.512-3.072,2.56-3.072,4.096c0,2.048,0.512,3.584,2.56,4.608l11.264,7.168l0.512,13.312c0,2.048,1.024,3.584,3.072,4.608
	c0.512,0.512,1.536,0.512,2.048,0.512c1.024,0,2.56-0.512,3.072-1.024l10.24-8.704L103.312,239.68z M86,226.88l-4,3.584v-5.632
	c0-1.536-1.12-3.072-2.656-4.096l-4.656-3.072l5.096-2.048c1.536-0.512,2.548-2.048,3.06-3.584l1.53-5.632l3.581,4.096
	c1.024,1.536,2.559,2.048,4.606,2.048l5.631-0.512l-3.072,4.608c-1.024,1.536-1.024,3.072-0.512,4.608l2.048,5.12l-5.072-1.536
	C89.024,225.344,87.536,225.344,86,226.88z"/>
<path class="st0" d="M159.632,405.056l2.048-12.8c0.512-2.048-0.512-4.096-2.048-5.12c-1.536-1.024-3.584-1.536-5.632-0.512
	l-11.776,6.144l-11.776-6.144c-1.536-1.024-3.584-0.512-5.632,0.512c-1.536,1.024-2.56,3.072-2.048,5.12l2.048,12.8l-9.216,9.216
	c-1.536,1.536-2.048,3.584-1.536,5.12c0.512,2.048,2.048,3.072,4.096,3.584l13.312,2.048l5.632,11.776
	c1.024,1.536,2.56,3.072,4.608,3.072l0,0c2.048,0,3.584-1.024,4.608-3.072l5.632-11.776l13.312-2.048
	c2.048-0.512,3.584-1.536,4.096-3.584c0.512-2.048,0-4.096-1.536-5.12L159.632,405.056z M148.88,414.784
	c-1.536,0-3.072,1.536-4.096,2.56l-2.56,5.12l-2.56-5.12c-0.512-1.536-2.048-2.56-4.096-2.56l-5.632-1.024l4.096-4.096
	c1.024-1.024,1.536-3.072,1.536-4.608l-1.024-5.632l5.12,2.56c1.536,1.024,3.072,1.024,4.608,0l5.12-2.56l-1.024,5.632
	c-0.512,1.536,0.512,3.584,1.536,4.608L154,413.76L148.88,414.784z"/>
<path class="st0" d="M43.92,307.264c-9.728,0-17.92,8.192-17.92,17.92c0,9.728,8.192,17.92,17.92,17.92s17.92-8.192,17.92-17.92
	C61.84,315.456,53.648,307.264,43.92,307.264z M43.92,332.864c-4.096,0-7.68-3.584-7.68-7.68c0-4.096,3.584-7.68,7.68-7.68
	s7.68,3.584,7.68,7.68C51.6,329.28,48.016,332.864,43.92,332.864z"/>
<path class="st0" d="M339.856,49.216c-9.728,0-17.92,8.192-17.92,17.92s8.192,17.92,17.92,17.92s17.92-8.192,17.92-17.92
	S349.584,49.216,339.856,49.216z M339.856,74.816c-4.096,0-7.68-3.584-7.68-7.68c0-4.096,3.584-7.68,7.68-7.68s7.68,3.584,7.68,7.68
	C347.536,71.232,343.952,74.816,339.856,74.816z"/>
<path class="st0" d="M290.704,387.648c-9.728,0-17.92,8.192-17.92,17.92c0,9.728,8.192,17.92,17.92,17.92
	c9.728,0,17.92-8.192,17.92-17.92C308.112,395.328,300.432,387.648,290.704,387.648z M290.704,412.736
	c-4.096,0-7.68-3.584-7.68-7.68c0-4.096,3.584-7.68,7.68-7.68c4.096,0,7.68,3.584,7.68,7.68
	C298.384,409.152,294.8,412.736,290.704,412.736z"/>
<path class="st0" d="M257.936,153.664c1.536,0,2.56-0.512,3.584-1.536l26.624-26.624c2.048-2.048,2.048-5.12,0-7.168
	c-2.048-2.048-5.12-2.048-7.168,0l-26.624,26.624c-2.048,2.048-2.048,5.12,0,7.168C255.376,153.152,256.912,153.664,257.936,153.664
	z"/>
<path class="st0" d="M232.336,239.168c-2.048-2.048-5.12-2.048-7.168,0L91.024,373.312c-2.048,2.048-2.048,5.12,0,7.168
	c1.024,1.024,2.56,1.536,3.584,1.536c1.024,0,2.56-0.512,3.584-1.536l134.144-134.144
	C234.384,244.288,234.384,241.216,232.336,239.168z"/>
<path class="st0" d="M391.056,150.592c-2.048-2.048-5.12-2.048-7.168,0L203.664,330.304c-2.048,2.048-2.048,5.12,0,7.168
	c1.024,1.024,2.56,1.536,3.584,1.536c1.536,0,2.56-0.512,3.584-1.536L390.544,157.76
	C392.592,155.712,392.592,152.64,391.056,150.592z"/>
<path class="st0" d="M277.904,41.536c-2.048-2.048-5.12-2.048-7.168,0L137.104,175.168c-2.048,2.048-2.048,5.12,0,7.168
	c1.024,1.024,2.56,1.536,3.584,1.536c1.536,0,2.56-0.512,3.584-1.536L277.904,48.704C279.952,46.656,279.952,43.584,277.904,41.536z
	"/>
<path class="st0" d="M128.912,282.688c1.536,0,2.56-0.512,3.584-1.536l98.816-98.816c2.048-2.048,2.048-5.12,0-7.168
	c-2.048-2.048-5.12-2.048-7.168,0l-98.816,98.304c-2.048,2.048-2.048,5.12,0,7.168C126.352,282.176,127.888,282.688,128.912,282.688
	z"/>
<path class="st0" d="M256.4,351.808l-26.624,26.624c-2.048,2.048-2.048,5.12,0,7.168c1.024,1.024,2.56,1.536,3.584,1.536
	c1.536,0,2.56-0.512,3.584-1.536l26.624-26.624c2.048-2.048,2.048-5.12,0-7.168C262.032,349.76,258.448,349.76,256.4,351.808z"/>
<path class="st0" d="M385.424,222.784L286.608,321.6c-2.048,2.048-2.048,5.12,0,7.168c1.024,1.024,2.56,1.536,3.584,1.536
	c1.536,0,2.56-0.512,3.584-1.536l98.816-98.816c2.048-2.048,2.048-5.12,0-7.168C391.056,220.736,387.472,220.736,385.424,222.784z"
	/>
<path class="st0" d="M261.52,217.152c1.536,0,2.56-0.512,3.584-1.536l88.576-88.576c2.048-2.048,2.048-5.12,0-7.168
	s-5.12-2.048-7.168,0l-88.576,88.576c-2.048,2.048-2.048,5.12,0,7.168C258.96,216.64,259.984,217.152,261.52,217.152z"/>
</svg>
